<svg width="19" height="18" viewBox="0 0 19 18" fill="none" xmlns="http://www.w3.org/2000/svg">
<rect x="8.01367" y="8" width="8.01365" height="2" rx="1" transform="rotate(-180 8.01367 8)" fill="#4DB6BC"/>
<rect x="8.01367" y="5" width="8.01365" height="2" rx="1" transform="rotate(-180 8.01367 5)" fill="#4DB6BC"/>
<rect x="8.01367" y="2" width="8.01365" height="2" rx="1" transform="rotate(-180 8.01367 2)" fill="#4DB6BC"/>
<rect x="18.0312" y="18" width="8.01365" height="2" rx="1" transform="rotate(-180 18.0312 18)" fill="#4DB6BC"/>
<rect x="18.0312" y="15" width="8.01365" height="2" rx="1" transform="rotate(-180 18.0312 15)" fill="#4DB6BC"/>
<rect x="18.0312" y="12" width="8.01365" height="2" rx="1" transform="rotate(-180 18.0312 12)" fill="#4DB6BC"/>
<rect x="10.0176" y="8" width="8" height="2.00341" rx="1" transform="rotate(-90 10.0176 8)" fill="white"/>
<rect x="13.0225" y="8" width="8" height="2.00341" rx="1" transform="rotate(-90 13.0225 8)" fill="white"/>
<rect x="16.0273" y="8" width="8" height="2.00341" rx="1.00171" transform="rotate(-90 16.0273 8)" fill="white"/>
<rect y="18" width="8" height="2.00341" rx="1" transform="rotate(-90 0 18)" fill="white"/>
<rect x="3.00488" y="18" width="8" height="2.00341" rx="1" transform="rotate(-90 3.00488 18)" fill="white"/>
<rect x="6.01074" y="18" width="8" height="2.00341" rx="1.00171" transform="rotate(-90 6.01074 18)" fill="white"/>
</svg>
