<svg width="18" height="18" viewBox="0 0 18 18" fill="none" xmlns="http://www.w3.org/2000/svg">
<path fill-rule="evenodd" clip-rule="evenodd" d="M8.9998 1.8C6.02606 1.8 3.5998 4.23781 3.5998 7.26429C3.5998 9.53011 4.98966 11.7772 6.52843 13.5437C7.28223 14.409 8.03859 15.1212 8.6071 15.6172C8.75163 15.7433 8.8836 15.8551 8.9998 15.9515C9.116 15.8551 9.24798 15.7433 9.39251 15.6172C9.96102 15.1212 10.7174 14.409 11.4712 13.5437C13.0099 11.7772 14.3998 9.53011 14.3998 7.26429C14.3998 4.23781 11.9735 1.8 8.9998 1.8ZM8.9998 17.1C8.46694 17.8253 8.46648 17.825 8.46648 17.825L8.46426 17.8233L8.45929 17.8196L8.44264 17.8072C8.4286 17.7967 8.40875 17.7818 8.38346 17.7625C8.33289 17.724 8.26056 17.6681 8.16957 17.5959C7.98768 17.4515 7.73075 17.2414 7.42376 16.9736C6.81102 16.439 5.99238 15.6687 5.17118 14.726C3.55995 12.8764 1.7998 10.2056 1.7998 7.26429C1.7998 3.26097 5.01476 0 8.9998 0C12.9848 0 16.1998 3.26097 16.1998 7.26429C16.1998 10.2056 14.4397 12.8764 12.8284 14.726C12.0072 15.6687 11.1886 16.439 10.5759 16.9736C10.2689 17.2414 10.0119 17.4515 9.83004 17.5959C9.73905 17.6681 9.66672 17.724 9.61615 17.7625C9.59086 17.7818 9.57101 17.7967 9.55697 17.8072L9.54032 17.8196L9.53535 17.8233L9.53372 17.8245C9.53372 17.8245 9.53267 17.8253 8.9998 17.1ZM8.9998 17.1L9.53267 17.8253L9.26624 18C9.26624 18 9.10385 18 8.9998 18C8.89567 18 8.73314 18 8.73314 18L8.46648 17.825L8.9998 17.1Z" fill="#4DB6BC"/>
<path fill-rule="evenodd" clip-rule="evenodd" d="M8.9998 5.4C8.00569 5.4 7.1998 6.20589 7.1998 7.2C7.1998 8.19411 8.00569 9 8.9998 9C9.99392 9 10.7998 8.19411 10.7998 7.2C10.7998 6.20589 9.99392 5.4 8.9998 5.4ZM5.3998 7.2C5.3998 5.21177 7.01158 3.6 8.9998 3.6C10.988 3.6 12.5998 5.21177 12.5998 7.2C12.5998 9.18822 10.988 10.8 8.9998 10.8C7.01158 10.8 5.3998 9.18822 5.3998 7.2Z" fill="#4DB6BC"/>
</svg>
