<svg width="17" height="17" viewBox="0 0 17 17" fill="none" xmlns="http://www.w3.org/2000/svg">
<path d="M1.29746 16.355C1.05118 16.3546 0.816401 16.2507 0.650409 16.0688C0.481356 15.8883 0.397352 15.6443 0.419508 15.398L0.634606 13.0328L10.5712 3.09971L13.6766 6.20414L3.74255 16.1364L1.37735 16.3515C1.35014 16.3541 1.32292 16.355 1.29746 16.355ZM14.2964 5.58343L11.192 2.479L13.0541 0.616866C13.2188 0.452007 13.4422 0.359375 13.6752 0.359375C13.9083 0.359375 14.1317 0.452007 14.2964 0.616866L16.1585 2.479C16.3234 2.64367 16.416 2.86713 16.416 3.10015C16.416 3.33316 16.3234 3.55662 16.1585 3.7213L14.2973 5.58255L14.2964 5.58343Z" fill="#C5C5C5"/>
</svg>
