<svg width="11" height="11" viewBox="0 0 11 11" fill="none" xmlns="http://www.w3.org/2000/svg">
<path d="M4.725 9.45C2.1195 9.45 0 7.3305 0 4.725C0 2.1195 2.1195 0 4.725 0C7.3305 0 9.45 2.1195 9.45 4.725C9.45 7.3305 7.3305 9.45 4.725 9.45ZM4.725 1.35C2.86403 1.35 1.35 2.86403 1.35 4.725C1.35 6.58598 2.86403 8.1 4.725 8.1C6.58598 8.1 8.1 6.58598 8.1 4.725C8.1 2.86403 6.58598 1.35 4.725 1.35Z" fill="#C5C5C5"/>
<path d="M10.602 9.64799L8.98668 8.03271C8.70925 8.38979 8.3893 8.70974 8.03223 8.98717L9.6475 10.6024C9.77913 10.7341 9.95193 10.8002 10.1247 10.8002C10.2975 10.8002 10.4703 10.7341 10.602 10.6024C10.8659 10.3385 10.8659 9.91192 10.602 9.64799Z" fill="#C5C5C5"/>
</svg>
