<svg width="70" height="14" viewBox="0 0 70 14" fill="none" xmlns="http://www.w3.org/2000/svg">
<path d="M6.95284 13.0659C5.6523 13.0659 4.47331 12.7892 3.41586 12.2358C2.37057 11.6703 1.54406 10.8943 0.93633 9.90774C0.340756 8.90915 0.0429688 7.78423 0.0429688 6.53297C0.0429688 5.28172 0.340756 4.16282 0.93633 3.17625C1.54406 2.17766 2.37057 1.40164 3.41586 0.848204C4.47331 0.282735 5.65838 0 6.97107 0C8.07714 0 9.07381 0.1925 9.9611 0.577501C10.8605 0.962501 11.6141 1.51594 12.2218 2.23781L10.3257 3.97032C9.46276 2.98375 8.39316 2.49047 7.11693 2.49047C6.32688 2.49047 5.62192 2.66492 5.00203 3.01383C4.38215 3.35071 3.89597 3.82594 3.54348 4.43953C3.20316 5.05313 3.03299 5.75094 3.03299 6.53297C3.03299 7.31501 3.20316 8.01282 3.54348 8.62641C3.89597 9.24001 4.38215 9.72126 5.00203 10.0702C5.62192 10.407 6.32688 10.5755 7.11693 10.5755C8.39316 10.5755 9.46276 10.0762 10.3257 9.07759L12.2218 10.8101C11.6141 11.544 10.8605 12.1034 9.9611 12.4884C9.06166 12.8734 8.05891 13.0659 6.95284 13.0659Z" fill="#4DB6BC"/>
<path d="M16.5865 0.216562H19.5401V10.4672H25.9395V12.8494H16.5865V0.216562Z" fill="#4DB6BC"/>
<path d="M38.4716 10.1424H32.5462L31.4159 12.8494H28.3894L34.0777 0.216562H36.9948L42.7014 12.8494H39.602L38.4716 10.1424ZM37.5418 7.92259L35.518 3.08602L33.4943 7.92259H37.5418Z" fill="#4DB6BC"/>
<path d="M50.5889 13.0659C49.5801 13.0659 48.6017 12.9336 47.6536 12.6689C46.7177 12.3922 45.9641 12.0373 45.3929 11.6041L46.3956 9.40243C46.9426 9.79946 47.5928 10.1183 48.3464 10.3589C49.1 10.5995 49.8536 10.7199 50.6072 10.7199C51.4458 10.7199 52.0657 10.5995 52.4668 10.3589C52.8679 10.1063 53.0685 9.7754 53.0685 9.36633C53.0685 9.06555 52.9469 8.81891 52.7038 8.62641C52.4729 8.42188 52.169 8.25946 51.7922 8.13915C51.4276 8.01884 50.9293 7.88649 50.2972 7.74212C49.3249 7.51352 48.5287 7.28493 47.9088 7.05633C47.289 6.82774 46.7542 6.46079 46.3044 5.95547C45.8669 5.45016 45.6481 4.77641 45.6481 3.93422C45.6481 3.20032 45.8486 2.5386 46.2497 1.94906C46.6509 1.3475 47.2525 0.872266 48.0547 0.52336C48.8691 0.174453 49.8597 0 51.0265 0C51.8409 0 52.637 0.0962498 53.4149 0.28875C54.1928 0.48125 54.8734 0.757969 55.4568 1.11891L54.5452 3.33867C53.3663 2.67696 52.1873 2.3461 51.0083 2.3461C50.1818 2.3461 49.568 2.47844 49.1668 2.74313C48.7779 3.00782 48.5834 3.35672 48.5834 3.78985C48.5834 4.22297 48.8083 4.54782 49.258 4.76438C49.7199 4.96891 50.4188 5.17344 51.3547 5.37797C52.327 5.60657 53.1232 5.83516 53.743 6.06376C54.3629 6.29235 54.8917 6.65329 55.3292 7.14657C55.7789 7.63985 56.0038 8.30758 56.0038 9.14977C56.0038 9.87165 55.7972 10.5334 55.3839 11.1349C54.9828 11.7245 54.3751 12.1937 53.5607 12.5426C52.7464 12.8915 51.7558 13.0659 50.5889 13.0659Z" fill="#4DB6BC"/>
<path d="M64.5854 13.0659C63.5766 13.0659 62.5982 12.9336 61.6501 12.6689C60.7142 12.3922 59.9606 12.0373 59.3894 11.6041L60.3921 9.40243C60.9391 9.79946 61.5893 10.1183 62.3429 10.3589C63.0965 10.5995 63.8501 10.7199 64.6037 10.7199C65.4423 10.7199 66.0622 10.5995 66.4633 10.3589C66.8644 10.1063 67.065 9.7754 67.065 9.36633C67.065 9.06555 66.9434 8.81891 66.7003 8.62641C66.4694 8.42188 66.1655 8.25946 65.7887 8.13915C65.4241 8.01884 64.9258 7.88649 64.2937 7.74212C63.3214 7.51352 62.5252 7.28493 61.9054 7.05633C61.2855 6.82774 60.7507 6.46079 60.301 5.95547C59.8634 5.45016 59.6446 4.77641 59.6446 3.93422C59.6446 3.20032 59.8452 2.5386 60.2463 1.94906C60.6474 1.3475 61.249 0.872266 62.0512 0.52336C62.8656 0.174453 63.8562 0 65.023 0C65.8374 0 66.6335 0.0962498 67.4114 0.28875C68.1893 0.48125 68.8699 0.757969 69.4534 1.11891L68.5418 3.33867C67.3628 2.67696 66.1838 2.3461 65.0048 2.3461C64.1783 2.3461 63.5645 2.47844 63.1634 2.74313C62.7744 3.00782 62.5799 3.35672 62.5799 3.78985C62.5799 4.22297 62.8048 4.54782 63.2545 4.76438C63.7164 4.96891 64.4153 5.17344 65.3512 5.37797C66.3235 5.60657 67.1197 5.83516 67.7396 6.06376C68.3594 6.29235 68.8882 6.65329 69.3257 7.14657C69.7754 7.63985 70.0003 8.30758 70.0003 9.14977C70.0003 9.87165 69.7937 10.5334 69.3804 11.1349C68.9793 11.7245 68.3716 12.1937 67.5572 12.5426C66.7429 12.8915 65.7523 13.0659 64.5854 13.0659Z" fill="#4DB6BC"/>
</svg>
